# Blender 3.4.1
# www.blender.org
mtllib Rock_00_low.mtl
o Rock_00_low
v 23.770620 0.172531 6.472575
v 22.907970 0.172531 5.195473
v 23.888556 0.638379 6.493857
v 22.785059 0.843569 5.068910
v 22.904510 1.821951 6.513002
v 22.351799 1.865383 6.007772
v 22.314270 1.156386 5.320129
v 21.970621 1.889980 6.037118
v 22.836771 1.831050 6.959173
v 23.750746 0.566856 6.733006
v 23.712610 0.172531 6.683517
v 22.568018 0.172531 5.221302
v 22.329693 0.172531 5.388638
v 21.534866 0.717290 5.783785
v 19.414091 1.807556 10.036025
v 21.536226 0.568018 5.117774
v 22.090754 0.172531 5.060393
v 20.953903 0.560948 5.176489
v 20.915024 0.172531 5.178941
v 19.674454 0.542769 5.951397
v 19.635574 0.172531 5.953849
v 19.498192 0.578319 6.603499
v 19.459312 0.172531 6.605951
v 21.314184 1.854003 6.380562
v 21.283672 1.783340 6.454720
v 21.392447 0.682150 6.027585
v 21.180614 1.783340 6.384877
v 21.289389 0.682150 5.957743
v 20.250582 1.801502 6.996796
v 20.085897 0.700313 6.761665
v 20.022760 1.857589 8.345317
v 19.858078 0.756400 8.110186
v 20.066124 1.746724 6.779401
v 19.901440 0.645535 6.544270
v 19.005886 1.761535 9.048883
v 18.835690 0.660373 8.869268
v 18.962507 0.601903 6.731454
v 18.923628 0.172531 6.733906
v 18.489794 0.602549 8.379295
v 18.450914 0.172531 8.381747
v 19.635548 1.764415 8.834832
v 19.470865 0.663226 8.599701
v 18.971336 1.723031 9.195244
v 18.856251 0.662289 9.030749
v 19.138502 1.762338 8.982106
v 18.973820 0.661148 8.746975
v 18.797504 0.624388 9.035050
v 18.758625 0.138902 9.037503
v 19.984035 1.823339 10.097561
v 20.033472 0.769117 10.789927
v 20.775110 1.794254 9.523176
v 20.569948 0.720371 10.325615
v 21.747684 1.724552 8.838324
v 21.711378 0.648167 9.540041
v 18.947763 0.369389 11.103433
v 19.075842 0.153763 10.988658
v 19.208927 0.733673 10.838463
v 19.187515 0.640538 11.248621
v 20.176205 0.675983 11.078375
v 20.692345 0.642170 10.571443
v 20.751163 0.557083 10.492517
v 22.357267 0.553626 9.725037
v 19.131653 0.251095 11.301998
v 19.136358 0.157091 11.296263
v 20.142704 0.239480 11.041967
v 20.147409 0.145475 11.036232
v 20.659760 0.239480 10.565542
v 20.664465 0.145475 10.559807
v 20.701258 0.264384 10.518415
v 20.705963 0.145459 10.512680
v 21.794550 0.251664 9.891167
v 22.078402 0.181814 9.774232
v 23.104067 0.197389 8.394114
v 22.377401 0.259768 9.639299
v 21.904928 1.730682 8.774983
v 19.178204 1.760656 7.314213
v 19.260651 1.761055 7.308356
v 19.433889 1.756831 6.992850
v 19.115601 1.524042 6.962677
v 19.091915 0.658476 6.817574
v 19.007137 0.636006 6.793456
v 19.032021 0.659372 6.892854
v 19.045963 0.714741 6.847713
v 20.327803 1.757034 6.855315
v 20.389208 1.763343 6.661312
v 20.204397 1.736577 6.682203
v 20.241911 1.729492 6.884674
v 20.167082 0.660123 6.438149
v 20.068611 0.638811 6.447963
v 19.960062 0.650060 6.521908
v 20.072811 0.674755 6.592415
v 20.080469 0.766326 6.505260
v 20.750685 1.795029 9.140646
v 20.797998 1.794254 9.441904
v 20.783819 1.645167 9.501879
v 20.993973 1.780612 9.287903
v 20.591877 0.676972 10.247747
v 20.629652 0.634719 10.248468
v 20.767260 0.649918 10.103195
v 20.613615 0.696058 10.167593
v 22.573254 1.569249 8.168850
v 22.525291 1.811376 7.834735
v 22.267897 1.802248 7.869149
v 22.255997 1.780605 8.325301
v 23.151068 0.426564 8.429342
v 23.226196 0.568083 8.312362
v 23.128485 0.619841 8.445403
v 23.015821 0.565283 8.705468
vn 0.7984 -0.0025 -0.6021
vn 0.8129 -0.1266 -0.5685
vn 0.8150 -0.1812 -0.5505
vn 0.7411 0.5454 0.3915
vn 0.8053 0.5710 0.1597
vn 0.8047 0.5552 0.2103
vn 0.0647 0.6930 -0.7180
vn 0.2562 0.7201 -0.6448
vn 0.4862 0.6653 -0.5666
vn -0.3740 -0.1158 -0.9201
vn -0.4066 -0.0753 -0.9105
vn -0.0743 -0.1979 -0.9774
vn 0.6128 0.6298 -0.4774
vn 0.9293 -0.1698 0.3280
vn 0.9204 -0.1717 0.3514
vn 0.9482 -0.1348 0.2877
vn -0.5602 0.1106 -0.8210
vn -0.5371 -0.0670 -0.8408
vn -0.5429 0.2009 -0.8154
vn 0.5038 0.8153 -0.2855
vn 0.4963 0.8364 -0.2328
vn 0.4891 0.8513 -0.1898
vn -0.1003 0.0037 -0.9949
vn -0.3298 0.0272 -0.9436
vn -0.3026 0.0243 -0.9528
vn -0.5175 0.0483 -0.8543
vn -0.1259 0.9883 -0.0858
vn -0.0339 0.9752 -0.2186
vn -0.0793 0.9853 -0.1515
vn -0.9600 0.0961 -0.2630
vn -0.9607 0.0933 -0.2614
vn -0.9592 0.0990 -0.2647
vn -0.5213 0.3608 -0.7734
vn -0.4499 0.3451 -0.8237
vn -0.8693 0.0884 -0.4862
vn -0.9277 0.0495 -0.3701
vn -0.8655 0.0906 -0.4926
vn 0.5250 0.3524 -0.7747
vn -0.1110 0.9930 -0.0398
vn -0.1355 0.9812 -0.1377
vn -0.1514 0.9849 -0.0838
vn -0.1190 0.9850 -0.1246
vn -0.1280 0.9868 -0.0990
vn -0.9769 0.1729 -0.1257
vn -0.9684 0.1814 -0.1711
vn 0.9870 -0.1558 0.0384
vn -0.0662 0.9977 0.0166
vn -0.0049 1.0000 -0.0010
vn -0.0058 1.0000 -0.0011
vn -0.3538 0.2769 -0.8934
vn -0.3070 0.3206 -0.8961
vn -0.2557 0.2300 -0.9390
vn -0.9785 0.1063 0.1768
vn -0.9896 0.1310 0.0597
vn -0.9892 0.1361 0.0546
vn -0.3069 0.2424 -0.9204
vn -0.2356 0.2243 -0.9456
vn -0.2319 0.0160 -0.9726
vn -0.2320 0.0158 -0.9726
vn -0.2316 0.0163 -0.9727
vn -0.9901 0.0868 0.1107
vn -0.9858 0.1381 -0.0951
vn -0.9878 0.1487 -0.0459
vn -0.9577 0.0851 -0.2748
vn -0.9577 0.0850 -0.2748
vn -0.9577 0.0852 -0.2748
vn -0.3034 0.2105 -0.9293
vn -0.0381 0.1662 -0.9854
vn 0.0678 0.9977 0.0014
vn 0.0251 0.9994 0.0238
vn 0.0851 0.9963 -0.0074
vn 0.3549 -0.2457 0.9021
vn 0.2767 -0.2401 0.9305
vn -0.5301 0.2116 -0.8211
vn -0.5079 0.2274 -0.8308
vn -0.4737 0.2511 -0.8441
vn 0.4588 -0.2475 0.8534
vn 0.4670 -0.2358 0.8522
vn -0.0075 0.9999 -0.0071
vn -0.0101 0.9999 -0.0082
vn -0.0061 1.0000 -0.0066
vn -0.9017 0.0804 0.4249
vn -0.9525 0.0794 0.2941
vn -0.9505 0.0776 0.3010
vn -0.5161 0.8525 0.0826
vn -0.3217 0.9427 0.0884
vn -0.1693 0.9855 -0.0077
vn -0.9340 0.1887 0.3033
vn -0.9369 0.2133 0.2769
vn -0.8856 0.0241 0.4639
vn -0.0599 0.5628 0.8244
vn -0.0110 0.5832 0.8123
vn -0.1050 0.5425 0.8335
vn 0.5604 0.4425 0.7001
vn 0.5815 0.4492 0.6783
vn 0.5393 0.4355 0.7207
vn 0.0648 0.9979 -0.0093
vn 0.1026 0.9945 -0.0209
vn 0.0780 0.9969 -0.0090
vn 0.4958 0.4278 0.7558
vn 0.1891 0.5479 0.8149
vn 0.3781 0.4966 0.7813
vn -0.8599 -0.5105 -0.0005
vn -0.8250 -0.5527 0.1178
vn -0.8095 -0.5652 0.1586
vn -0.7588 0.6394 0.1237
vn -0.5376 0.8407 0.0654
vn 0.5137 0.4000 0.7590
vn 0.3366 0.7724 0.5386
vn 0.1220 0.9638 0.2371
vn -0.0173 0.9706 0.2401
vn 0.1312 0.9605 0.2452
vn 0.9643 0.0132 0.2644
vn 0.9642 0.0134 0.2647
vn 0.9625 0.0173 0.2707
vn 0.2441 0.9524 0.1828
vn 0.2438 0.9527 0.1817
vn -0.7641 0.6341 0.1186
vn -0.7718 0.6276 0.1022
vn -0.7313 -0.6035 0.3177
vn 0.2483 -0.0466 0.9676
vn 0.4564 -0.0575 0.8879
vn 0.2493 0.0229 0.9682
vn 0.4882 -0.0288 0.8723
vn 0.7200 -0.0384 0.6929
vn 0.2314 0.0506 0.9715
vn 0.1722 -0.0950 0.9805
vn 0.6814 -0.0973 0.7254
vn 0.7212 -0.0685 0.6894
vn 0.6280 -0.0042 0.7782
vn 0.6497 -0.0333 0.7595
vn 0.6476 -0.0626 0.7594
vn 0.4402 0.0449 0.8968
vn 0.4133 -0.2211 0.8833
vn 0.7817 0.5440 0.3050
vn 0.7201 0.5615 0.4076
vn 0.8237 0.3563 0.4411
vn -0.0085 0.9983 0.0569
vn -0.0283 0.9982 0.0529
vn -0.0111 0.9992 0.0385
vn 0.3754 -0.1608 0.9128
vn 0.1866 0.5446 0.8177
vn -0.1420 0.5881 0.7962
vn 0.6401 0.5801 0.5038
vn 0.8351 0.1976 0.5134
vn 0.6262 0.5609 0.5415
vn -0.0469 0.9983 0.0354
vn -0.0839 0.9955 0.0450
vn -0.0269 0.9992 0.0299
vn -0.0440 0.9981 -0.0440
vn -0.0904 0.9945 -0.0524
vn -0.0201 0.9981 -0.0576
vn 0.0141 0.9999 -0.0057
vn -0.0287 0.9993 -0.0232
vn 0.0026 1.0000 -0.0017
vn -0.0104 0.9990 -0.0438
vn 0.5292 0.8308 0.1724
vn 0.1310 0.9657 0.2244
vn -0.2019 0.9765 -0.0747
vn -0.1863 0.9785 -0.0884
vn -0.0433 0.8324 -0.5525
vn -0.3697 0.9201 -0.1290
vn -0.3386 0.9139 -0.2239
vn -0.4685 0.8765 -0.1103
vn -0.7495 -0.2946 -0.5928
vn -0.0871 0.8876 -0.4523
vn -0.1308 0.9127 -0.3872
vn -0.2038 0.7247 -0.6582
vn -0.9810 0.1675 -0.0975
vn -0.1493 0.9880 0.0402
vn -0.1854 0.9825 0.0161
vn -0.2808 0.9568 0.0762
vn -0.0169 0.9995 0.0277
vn -0.0600 0.9981 0.0135
vn -0.5106 0.6148 0.6011
vn -0.3589 0.3162 -0.8782
vn -0.1380 0.1947 -0.9711
vn -0.9863 0.1602 -0.0403
vn 0.0221 0.9998 -0.0009
vn 0.0493 0.9985 -0.0232
vn 0.0132 0.9999 0.0046
vn 0.4994 0.6326 0.5920
vn 0.7438 0.6660 0.0574
vn 0.7374 0.6566 -0.1583
vn 0.9624 0.0175 0.2710
vn 0.5719 0.8186 0.0538
vn 0.8795 -0.2333 0.4148
vn 0.9006 -0.1369 0.4125
vn 0.8850 -0.1512 0.4405
vn 0.8374 -0.1204 0.5331
vn 0.8363 -0.1000 0.5390
vn 0.0115 0.9985 0.0530
vn -0.0066 1.0000 -0.0012
vn -0.2167 0.7050 -0.6753
vn 0.7924 0.0302 -0.6093
vn 0.6533 0.5345 0.5363
vn -0.0103 0.6965 -0.7175
vn 0.6843 0.5762 -0.4470
vn 0.8704 -0.2400 0.4298
vn 0.5128 0.7731 -0.3733
vn -0.5174 0.0487 -0.8543
vn -0.9614 0.0905 -0.2599
vn -0.9373 0.0416 -0.3460
vn -0.0694 0.9923 0.1025
vn -0.1781 0.9788 -0.1015
vn -0.2038 0.9147 -0.3491
vn -0.3802 0.3016 -0.8744
vn -0.9921 0.1197 0.0386
vn -0.2323 0.0155 -0.9725
vn -0.9795 0.1084 -0.1696
vn -0.9577 0.0850 -0.2747
vn -0.3944 0.1624 -0.9045
vn -0.5644 0.1860 -0.8043
vn 0.6475 -0.2191 0.7299
vn -0.0145 0.9998 -0.0100
vn -0.9004 0.0838 0.4268
vn -0.9365 0.3064 0.1706
vn 0.0216 0.5958 0.8029
vn 0.6056 0.4565 0.6518
vn 0.8955 0.3398 -0.2875
vn -0.9840 0.0796 0.1594
vn -0.0290 0.9751 0.2199
vn 0.9643 0.0126 0.2645
vn -0.6594 0.1941 0.7263
vn -0.9793 -0.0608 0.1933
vn 0.7168 -0.0067 0.6972
vn 0.4307 0.3789 0.8191
vn 0.7819 0.5521 0.2896
vn -0.6002 0.6878 0.4084
vn 0.4486 -0.2219 0.8658
vn 0.6643 0.6072 0.4360
vn -0.0342 0.9992 0.0197
vn 0.0904 0.9786 0.1847
vn 0.0960 0.9770 0.1902
vn -0.1286 0.9820 -0.1383
vn -0.5424 0.7815 -0.3083
vn -0.3385 0.4117 -0.8461
vn -0.4889 0.3950 -0.7778
vn 0.6095 0.2453 0.7539
vn 0.0489 0.8121 0.5815
vt 0.210140 0.699867
vt 0.201771 0.915060
vt 0.350878 0.715936
vt 0.051280 0.684942
vt 0.223350 0.651850
vt 0.153101 0.919566
vt 0.336029 0.787990
vt 0.039384 0.614099
vt 0.000000 0.874404
vt 0.178926 0.498795
vt 0.367707 0.931917
vt 0.104050 0.478192
vt 0.379383 0.833013
vt 0.407669 0.938713
vt 0.085503 0.443133
vt 0.006193 0.829309
vt 0.214211 0.468154
vt 0.159194 0.890470
vt 0.200776 0.893116
vt 0.384623 0.728899
vt 0.414142 0.738644
vt 0.773858 0.462286
vt 0.481580 0.826653
vt 0.730789 0.573823
vt 0.551829 0.510817
vt 0.301228 0.000000
vt 0.799769 0.554273
vt 0.813135 0.487289
vt 0.813857 0.605458
vt 0.855242 0.601497
vt 0.633577 0.334069
vt 0.815539 0.758015
vt 0.855242 0.761713
vt 0.602271 0.320561
vt 0.671428 0.267345
vt 0.621777 0.260504
vt 0.481580 0.963653
vt 0.602271 0.613436
vt 0.079585 0.366569
vt 0.608847 0.624460
vt 0.084489 0.356981
vt 0.718047 0.600333
vt 0.613970 0.638608
vt 0.072841 0.351745
vt 0.727834 0.609469
vt 0.319035 0.841238
vt 0.074970 0.232268
vt 0.678325 0.336906
vt 0.204357 0.866993
vt 0.319035 0.699867
vt 0.855367 0.457945
vt 0.182192 0.141650
vt 0.204357 0.725622
vt 0.739472 0.462286
vt 0.806363 0.305585
vt 0.043822 0.227575
vt 0.690468 0.309925
vt 0.855367 0.018933
vt 0.192708 0.012717
vt 0.682540 1.000000
vt 0.670057 0.887584
vt 0.748421 0.000000
vt 0.659579 0.206420
vt 0.616152 0.200901
vt 0.666431 0.954771
vt 0.697501 0.027776
vt 0.651588 0.017456
vt 0.619146 0.964200
vt 0.752436 0.997487
vt 0.752436 0.764633
vt 0.205889 0.081411
vt 0.738613 0.879789
vt 0.602271 0.597724
vt 0.203446 0.003817
vt 0.675357 0.761713
vt 0.662608 0.871001
vt 0.523057 0.679307
vt 0.193501 0.028314
vt 0.698480 0.999262
vt 0.688013 0.889614
vt 0.655647 0.874568
vt 0.518225 0.683781
vt 0.602271 0.885004
vt 0.481203 0.715936
vt 0.550600 0.452021
vt 0.336029 0.047426
vt 0.420008 0.445997
vt 0.583743 0.351494
vt 0.325596 0.147206
vt 0.584821 0.315310
vt 0.438492 0.372578
vt 0.444799 0.362409
vt 0.586270 0.174377
vt 0.317624 0.269030
vt 0.458885 0.216519
vt 0.371715 0.544748
vt 0.353010 0.563686
vt 0.413238 0.526874
vt 0.379104 0.518094
vt 0.387776 0.439637
vt 0.408173 0.371508
vt 0.409845 0.374118
vt 0.403839 0.357898
vt 0.420744 0.162607
vt 0.350879 0.530408
vt 0.342019 0.532403
vt 0.345400 0.435190
vt 0.336029 0.433601
vt 0.361451 0.361315
vt 0.351565 0.358452
vt 0.365860 0.355205
vt 0.352946 0.351739
vt 0.383676 0.215679
vt 0.379914 0.183179
vt 0.201771 0.704647
vt 0.421263 0.003777
vt 0.393121 0.150736
vt 0.585034 0.155713
vt 0.320557 0.286182
vt 0.043095 0.118689
vt 0.802650 0.178185
vt 0.046568 0.126684
vt 0.799991 0.237870
vt 0.028250 0.160211
vt 0.772533 0.207448
vt 0.000000 0.131024
vt 0.674803 0.210346
vt 0.666287 0.205320
vt 0.675910 0.198748
vt 0.681762 0.204634
vt 0.068024 0.251920
vt 0.054385 0.267731
vt 0.619746 0.728075
vt 0.624548 0.747382
vt 0.312183 0.874191
vt 0.046180 0.250289
vt 0.311696 0.852916
vt 0.065806 0.242447
vt 0.740782 0.735559
vt 0.694893 0.327941
vt 0.744873 0.745625
vt 0.319035 0.699867
vt 0.692997 0.315416
vt 0.684076 0.309435
vt 0.332355 0.702688
vt 0.332355 0.716657
vt 0.674926 0.319744
vt 0.201771 0.884534
vt 0.211342 0.893451
vt 0.319479 0.714351
vt 0.729791 0.747435
vt 0.290504 0.164930
vt 0.587867 0.306359
vt 0.319600 0.153454
vt 0.336029 0.151523
vt 0.569837 0.307507
vt 0.590917 0.277418
vt 0.316194 0.178822
vt 0.444942 0.351868
vt 0.440535 0.347718
vt 0.445963 0.327146
vt 0.450901 0.345058
vt 0.039961 0.704982
vt 0.581328 0.055583
vt 0.312599 0.379004
vt 0.009919 0.734749
vt 0.273829 0.392608
vt 0.263877 0.367748
vt 0.302206 0.340184
vt 0.602271 0.095351
vt 0.445403 0.010835
vt 0.463548 0.000000
vt 0.162012 0.716153
vt 0.155306 0.699867
vt 0.464756 0.018487
vt 0.451197 0.045601
s 1
f 2/4/1 3/5/2 1/1/3
f 10/18/4 5/9/5 9/16/6
f 7/13/7 6/11/8 4/7/9
f 12/20/10 4/7/11 2/3/12
f 5/10/13 4/8/9 6/12/8
f 1/2/14 10/18/15 11/19/16
f 7/13/17 13/21/18 14/23/19
f 13/22/20 16/27/21 14/24/22
f 16/27/23 19/30/24 18/29/25
f 19/30/24 20/32/26 18/29/25
f 14/24/27 16/27/28 18/29/29
f 21/34/30 22/35/31 20/31/32
f 8/14/33 14/23/19 24/37/34
f 26/42/35 24/38/36 14/24/37
f 26/42/38 27/43/38 25/40/38
f 28/45/39 14/24/27 18/29/29
f 34/57/40 89/140/41 20/31/42
f 88/139/43 28/45/39 18/29/29
f 29/46/44 32/53/45 31/50/45
f 32/54/46 33/55/46 31/51/46
f 41/71/47 76/120/48 45/78/49
f 27/43/50 88/139/51 85/133/52
f 86/135/53 91/148/54 87/137/55
f 34/57/56 78/123/57 33/55/56
f 23/36/58 37/63/59 22/35/60
f 79/125/61 82/129/62 76/121/63
f 38/64/64 39/66/65 37/63/66
f 80/127/67 79/125/68 78/123/57
f 6/12/69 9/17/70 5/10/71
f 45/79/72 42/72/73 41/69/73
f 42/72/74 43/75/75 41/70/76
f 35/60/77 46/80/78 45/79/72
f 46/80/79 44/76/80 42/72/81
f 39/65/82 48/83/83 47/81/84
f 47/81/85 36/61/86 39/65/87
f 44/77/88 15/25/89 43/73/90
f 15/25/91 50/87/92 49/85/93
f 49/85/94 52/91/95 51/88/96
f 96/158/97 29/47/98 93/152/99
f 96/157/100 54/95/101 53/93/102
f 47/82/103 56/97/104 55/96/105
f 47/82/85 57/98/106 44/77/107
f 95/156/108 99/161/109 96/157/100
f 50/87/110 58/99/111 59/100/112
f 52/92/113 100/162/114 51/90/115
f 50/87/110 60/101/116 52/91/117
f 55/96/118 58/99/119 57/98/106
f 56/97/104 63/105/120 55/96/105
f 64/106/121 65/107/122 63/105/123
f 66/108/124 67/109/125 65/107/122
f 58/99/126 65/107/122 59/100/127
f 59/100/128 67/109/125 60/101/129
f 67/109/125 70/112/130 69/111/131
f 67/109/125 61/103/132 60/102/129
f 70/112/130 71/113/133 69/111/131
f 61/103/132 71/113/133 62/104/134
f 106/173/135 101/163/136 107/174/137
f 24/39/138 103/168/139 102/167/140
f 72/114/141 62/104/134 71/113/133
f 75/118/142 54/95/101 62/104/143
f 75/118/144 108/176/145 104/170/146
f 75/119/147 103/168/148 25/41/149
f 15/26/150 41/71/47 43/74/151
f 33/56/152 78/124/153 77/122/154
f 51/89/155 41/71/47 49/86/156
f 99/161/109 98/160/157 61/103/158
f 34/57/40 32/54/159 30/48/160
f 101/164/136 108/176/145 107/175/137
f 77/122/161 79/126/161 76/120/161
f 82/129/162 81/128/163 37/63/164
f 80/127/165 82/129/165 83/130/165
f 37/63/166 80/127/167 22/35/168
f 76/121/63 36/62/169 35/58/169
f 84/131/170 86/136/171 87/138/172
f 27/44/173 85/132/174 84/131/170
f 90/145/175 91/146/175 92/150/175
f 85/133/52 92/151/176 86/134/177
f 87/137/55 30/49/178 29/46/44
f 94/154/179 96/158/97 93/152/99
f 51/89/155 94/154/179 93/152/99
f 84/131/170 96/158/180 53/94/181
f 98/160/157 100/162/182 97/159/183
f 52/92/184 61/103/184 97/159/183
f 51/90/115 95/156/185 94/153/185
f 98/160/157 97/159/183 61/103/184
f 101/165/186 103/168/186 104/169/186
f 73/116/187 106/172/188 105/171/189
f 105/171/189 107/175/137 108/176/145
f 73/116/187 105/171/189 108/176/145
f 9/16/6 106/173/135 10/18/4
f 74/117/190 108/176/145 62/104/191
f 11/19/16 106/173/188 73/115/187
f 24/39/138 9/17/70 8/15/192
f 35/59/193 45/78/49 76/120/48
f 82/129/162 39/66/87 36/62/86
f 34/57/194 22/35/168 80/127/167
f 2/4/1 4/8/195 3/5/2
f 10/18/4 3/6/196 5/9/5
f 7/13/7 8/14/197 6/11/8
f 12/20/10 7/13/17 4/7/11
f 5/10/13 3/5/198 4/8/9
f 1/2/14 3/6/199 10/18/15
f 7/13/17 12/20/10 13/21/18
f 13/22/20 17/28/200 16/27/21
f 16/27/23 17/28/23 19/30/24
f 19/30/24 21/33/201 20/32/26
f 21/34/30 23/36/202 22/35/31
f 8/14/33 7/13/17 14/23/19
f 26/42/35 25/40/203 24/38/36
f 26/42/38 28/45/38 27/43/38
f 28/45/39 26/42/204 14/24/27
f 20/31/42 22/35/205 34/57/40
f 34/57/40 90/143/206 89/140/41
f 18/29/29 20/32/42 88/139/43
f 20/32/42 89/141/41 88/139/43
f 29/46/44 30/49/178 32/53/45
f 32/54/46 34/57/46 33/55/46
f 41/71/47 77/122/154 76/120/48
f 27/43/50 28/45/207 88/139/51
f 86/135/53 92/149/208 91/148/54
f 34/57/56 80/127/67 78/123/57
f 23/36/58 38/64/209 37/63/59
f 79/125/61 83/130/210 82/129/62
f 38/64/64 40/67/211 39/66/65
f 80/127/67 83/130/212 79/125/68
f 6/12/69 8/15/192 9/17/70
f 45/79/72 46/80/78 42/72/73
f 42/72/74 44/76/213 43/75/75
f 35/60/77 36/61/214 46/80/78
f 46/80/79 36/61/215 44/76/80
f 39/65/82 40/68/216 48/83/83
f 47/81/85 44/76/107 36/61/86
f 44/77/88 57/98/217 15/25/89
f 15/25/91 57/98/218 50/87/92
f 49/85/94 50/87/219 52/91/95
f 96/158/220 87/138/220 29/47/220
f 96/157/100 99/161/109 54/95/101
f 47/82/84 48/84/83 56/97/221
f 47/82/85 55/96/118 57/98/106
f 95/156/108 100/162/182 99/161/109
f 50/87/110 57/98/222 58/99/111
f 52/92/113 97/159/223 100/162/114
f 50/87/110 59/100/112 60/101/116
f 55/96/224 63/105/224 58/99/224
f 56/97/225 64/106/225 63/105/225
f 64/106/121 66/108/124 65/107/122
f 66/108/124 68/110/226 67/109/125
f 58/99/126 63/105/123 65/107/122
f 59/100/128 65/107/122 67/109/125
f 67/109/125 68/110/226 70/112/130
f 67/109/125 69/111/131 61/103/132
f 70/112/130 72/114/227 71/113/133
f 61/103/132 69/111/131 71/113/133
f 106/173/135 102/166/228 101/163/136
f 24/39/229 25/41/229 103/168/229
f 72/114/141 74/117/230 62/104/134
f 75/118/142 53/93/102 54/95/101
f 75/118/144 62/104/231 108/176/145
f 25/41/149 27/44/173 75/119/147
f 75/119/147 104/169/148 103/168/148
f 15/26/150 49/86/156 41/71/47
f 41/71/47 31/52/232 77/122/154
f 31/52/232 33/56/152 77/122/154
f 51/89/155 31/52/232 41/71/47
f 62/104/233 54/95/234 61/103/158
f 54/95/234 99/161/109 61/103/158
f 30/48/160 91/147/235 34/57/40
f 91/147/235 90/144/206 34/57/40
f 101/164/136 104/170/146 108/176/145
f 77/122/236 78/124/236 79/126/236
f 80/127/167 81/128/163 82/129/162
f 37/63/166 81/128/163 80/127/167
f 76/121/63 82/129/62 36/62/169
f 84/131/170 85/132/174 86/136/171
f 84/131/170 53/94/181 27/44/173
f 53/94/181 75/119/147 27/44/173
f 92/151/176 88/139/51 89/141/237
f 89/142/237 90/145/238 92/150/176
f 85/133/52 88/139/51 92/151/176
f 87/137/55 91/148/54 30/49/178
f 94/154/239 95/155/108 96/158/100
f 93/152/99 29/47/98 31/52/232
f 31/52/232 51/89/155 93/152/99
f 84/131/170 87/138/172 96/158/180
f 98/160/157 99/161/109 100/162/182
f 52/92/184 60/102/184 61/103/184
f 51/90/115 100/162/114 95/156/185
f 101/165/240 102/167/240 103/168/240
f 105/171/189 106/172/188 107/175/137
f 9/16/6 102/166/228 106/173/135
f 74/117/190 73/116/187 108/176/145
f 11/19/16 10/18/15 106/173/188
f 24/39/138 102/167/140 9/17/70
f 82/129/162 37/63/164 39/66/87
