# Blender 3.4.1
# www.blender.org
mtllib Ground03_low.mtl
o Ground_low.001
v 21.174082 -0.802386 -17.602037
v -4.308860 -0.802386 -21.142332
v -9.293306 -0.802386 13.793793
v -14.578722 -0.802386 -9.390531
v 6.650350 -0.802386 -24.604042
v 5.903872 -0.802386 14.828358
v 2.478605 -0.802386 -23.305912
v -1.535886 -0.802386 13.198927
v -8.443712 -0.802386 -19.432442
v 12.641868 -0.802386 14.210642
v 13.236969 -0.802386 -23.269350
v -15.156174 -0.802386 1.952668
v 26.003880 -0.802386 2.108962
v -12.328365 -0.802386 9.428755
v 24.892778 -0.802386 6.468616
v -1.473982 -0.802386 -22.165482
v 16.856651 -0.802386 11.765863
v 15.585428 -0.802386 -22.956467
v 9.803589 -0.802386 -24.338125
v 7.907668 -0.802386 13.717243
v -12.165392 -0.802386 -13.334367
v 22.702457 -0.802386 -4.445032
v 4.919763 -0.802386 -23.497807
v -5.111309 -0.318337 -10.824262
v 21.174082 0.347614 -17.704811
v -1.473982 0.016624 -22.165482
v -4.308860 -0.019506 -21.142332
v -12.328365 0.023763 9.428755
v -9.293306 0.050586 13.793793
v 16.856651 0.346484 11.765863
v 26.003881 0.437003 2.108963
v -12.165388 -0.045797 -13.334366
v -14.578720 -0.053220 -9.390531
v 18.221245 0.364081 0.770592
v 9.803589 0.225825 -24.338125
v 6.650350 0.187522 -24.604042
v 5.903872 0.190454 14.828358
v 0.735852 0.111377 -0.337355
v 5.937758 0.189141 0.297302
v 6.027689 0.176084 -2.677005
v 5.450260 0.198848 9.948259
v 4.919763 0.158867 -23.497807
v 2.478605 0.092279 -23.305912
v -1.535886 0.105413 13.198927
v -10.672388 -0.095115 -3.264292
v -4.948416 0.019821 -1.644610
v -3.891681 0.047472 -4.951508
v -2.903530 0.083836 9.458201
v 22.702457 0.397870 -4.445032
v -8.443712 -0.026322 -19.432442
v 6.279562 0.185193 -8.776221
v -0.593889 0.076513 -10.730811
v 3.085805 0.136914 -9.689929
v 17.305197 0.336712 -9.938530
v -4.196818 0.021226 -12.231130
v 7.907668 0.232693 13.717243
v 12.641869 0.291681 14.210642
v 9.633229 0.241864 0.493852
v 13.749111 0.300775 0.822220
v 15.585430 0.304549 -22.956469
v 13.236971 0.273740 -23.269350
v 9.892421 0.234244 -9.217033
v 13.804379 0.288704 -9.620321
v 12.450466 0.296631 9.106739
v 13.590918 0.292134 -2.893251
v -15.156172 -0.002404 1.952668
v 24.892778 0.408320 6.468616
v 5.137562 0.187798 6.105239
v -4.324471 0.056698 4.180845
v 13.678738 0.307856 5.513945
v 18.470064 0.373469 4.174389
v 0.237961 0.118551 5.557852
v 9.272082 0.245904 5.812787
v -9.913078 -0.008444 2.517350
v 18.646608 0.363443 7.957053
v 0.697966 0.132104 9.940681
v 9.015116 0.248040 9.168658
v -7.266204 0.045145 9.180002
v -7.917852 0.004772 -6.815002
v 18.186375 0.357010 -3.010095
v 9.803375 0.238790 -2.692524
v 1.087963 0.021959 -3.192533
v 24.250032 -0.802386 -4.191365
v 25.545694 -0.802386 -2.802449
v 24.857065 -0.802386 -3.934238
v 25.331310 -0.802386 -3.425860
v 25.545696 0.421489 -2.802449
v 24.250032 0.409113 -4.191365
v 24.433182 0.410271 -3.335558
v 25.331314 0.418450 -3.425859
v 24.857067 0.413919 -3.934238
v 22.089367 -0.802386 10.675199
v 20.224131 -0.802386 11.697959
v 21.595894 -0.802386 11.177724
v 20.913168 -0.802386 11.552080
v 20.224134 0.388973 11.697959
v 22.089371 0.404919 10.675200
v 20.913172 0.396651 11.552080
v 21.595898 0.402487 11.177725
v -2.920249 -0.802386 14.372525
v -5.000247 -0.802386 14.859418
v -3.533953 -0.802386 14.721786
v -4.295285 -0.802386 14.900001
v -5.000247 0.072329 14.859418
v -2.920249 0.089048 14.372525
v -4.433581 0.072461 14.108137
v -4.295287 0.076727 14.900000
v -3.533954 0.082847 14.721786
v 2.046812 -0.802386 15.346180
v 0.304949 -0.802386 14.818658
v 1.450675 -0.802386 15.324209
v 0.813109 -0.802386 15.131124
v 0.304948 0.135827 14.818658
v 2.046811 0.156862 15.346180
v 0.991247 0.145325 14.481323
v 0.813109 0.143185 15.131124
v 1.450675 0.150885 15.324209
v 23.164324 -0.802386 -12.548385
v 23.417942 -0.802386 -10.617741
v 23.333309 -0.802386 -11.946918
v 23.426140 -0.802386 -11.240254
v 23.759186 0.384313 -10.626990
v 23.512218 0.376935 -12.533488
v 22.958483 0.375497 -11.368812
v 23.787857 0.382532 -11.243712
v 23.697462 0.379831 -11.941540
v -2.822779 0.018904 -17.244352
v 0.600808 0.082643 -15.620464
v 3.782496 0.145254 -14.935323
v 6.410023 0.186013 -14.345223
v 9.862407 0.231399 -14.326080
v 13.577696 0.282725 -15.073194
v 16.565571 0.322880 -15.537199
v 13.339724 0.276449 -20.797607
v 9.832686 0.228583 -19.385057
v 6.513350 0.186662 -18.755962
v 4.361599 0.152186 -19.295389
v 1.734070 0.088459 -20.258678
vn -0.0112 0.9999 0.0066
vn -0.0154 0.9999 -0.0033
vn -0.0159 0.9999 0.0014
vn -0.0031 0.9999 -0.0107
vn -0.0175 0.9998 -0.0018
vn -0.0134 0.9999 -0.0003
vn -0.0063 1.0000 -0.0045
vn -0.0137 0.9999 -0.0006
vn -0.0115 0.9999 0.0004
vn -0.0142 0.9999 -0.0017
vn -0.0140 0.9999 -0.0036
vn 0.0112 0.9999 -0.0081
vn -0.0118 0.9999 0.0012
vn -0.0131 0.9999 -0.0017
vn -0.0013 1.0000 -0.0051
vn -0.0098 0.9999 -0.0034
vn -0.0133 0.9999 -0.0091
vn -0.0153 0.9999 -0.0036
vn -0.0190 0.9998 0.0080
vn -0.0043 1.0000 -0.0031
vn -0.0068 1.0000 0.0040
vn -0.0085 1.0000 -0.0008
vn -0.0085 1.0000 -0.0028
vn -0.0139 0.9999 -0.0005
vn -0.0132 0.9999 0.0008
vn -0.0141 0.9999 -0.0009
vn -0.0115 0.9999 -0.0031
vn -0.0140 0.9999 -0.0011
vn -0.0069 0.9999 0.0088
vn -0.0151 0.9999 -0.0000
vn -0.0081 1.0000 -0.0021
vn -0.0258 0.9997 0.0052
vn -0.0140 0.9999 -0.0017
vn -0.0143 0.9999 -0.0021
vn -0.0152 0.9999 -0.0003
vn -0.0140 0.9999 -0.0014
vn -0.0207 0.9996 -0.0191
vn 0.1321 -0.0000 -0.9912
vn -0.2409 -0.0000 0.9705
vn -0.9353 -0.0000 0.3538
vn 0.9802 -0.1396 0.1408
vn -0.3395 -0.0000 -0.9406
vn -0.8536 -0.0000 -0.5209
vn -0.8210 -0.0000 0.5709
vn 0.8321 -0.0000 0.5546
vn -0.0114 0.9999 0.0002
vn -0.0061 1.0000 -0.0017
vn -0.0099 0.9999 -0.0034
vn 0.2972 -0.0000 -0.9548
vn 0.1618 -0.0000 -0.9868
vn -0.9987 -0.0000 -0.0508
vn -0.0090 1.0000 -0.0022
vn -0.3821 -0.0000 -0.9241
vn 0.4849 -0.0000 0.8745
vn -0.8530 -0.0000 -0.5220
vn -0.5386 -0.0000 -0.8426
vn 0.9690 -0.0000 0.2470
vn 0.5017 -0.0000 0.8650
vn 0.0840 -0.0000 -0.9965
vn -0.6606 -0.0000 0.7508
vn -0.2772 -0.0000 -0.9608
vn 0.6880 -0.0330 -0.7249
vn -0.0100 0.9999 -0.0007
vn -0.1037 -0.0000 0.9946
vn -0.0784 -0.0000 -0.9969
vn -0.0093 1.0000 -0.0017
vn -0.0091 1.0000 -0.0004
vn -0.0081 1.0000 0.0004
vn 0.3900 -0.0000 -0.9208
vn 0.7312 -0.0000 -0.6821
vn 0.9456 -0.0000 -0.3252
vn 0.9957 -0.0000 -0.0929
vn 0.7135 -0.0000 0.7007
vn 0.4808 -0.0000 0.8768
vn 0.2071 -0.0000 0.9783
vn 0.0202 -0.0000 0.9998
vn -0.0060 1.0000 -0.0043
vn -0.0089 1.0000 -0.0038
vn -0.0108 0.9999 -0.0012
vn -0.0575 -0.0000 0.9983
vn 0.2279 -0.0000 0.9737
vn 0.4946 -0.0000 0.8691
vn 0.6467 -0.0000 0.7628
vn -0.0141 0.9999 -0.0006
vn -0.0121 0.9999 -0.0000
vn -0.0100 0.9999 -0.0012
vn -0.0368 -0.0000 0.9993
vn -0.2898 -0.0000 0.9571
vn -0.5238 -0.0000 0.8518
vn 0.1331 -0.0000 0.9911
vn -0.0080 1.0000 -0.0033
vn -0.0081 1.0000 -0.0028
vn -0.0078 1.0000 -0.0025
vn 0.9584 -0.2839 0.0289
vn 0.9488 -0.2908 -0.1232
vn 0.9217 -0.2756 -0.2729
vn 0.9106 -0.1505 -0.3850
vn -0.0130 0.9999 -0.0006
vn -0.0129 0.9999 -0.0003
vn -0.0157 0.9999 -0.0004
vn -0.0210 0.9998 -0.0026
vn -0.0181 0.9998 -0.0043
vn -0.0143 0.9999 -0.0044
vn -0.0069 1.0000 -0.0021
vn -0.0252 0.9997 -0.0031
vn -0.0163 0.9999 -0.0004
vn -0.0124 0.9999 -0.0003
vn -0.0138 0.9999 -0.0005
vn -0.0134 0.9999 -0.0006
vn -0.0202 0.9998 -0.0037
vt 0.880409 0.195177
vt 0.946408 0.635490
vt 0.849547 0.731862
vt 0.949145 0.562579
vt 0.949145 0.000000
vt 0.880409 0.804127
vt 0.763583 0.708997
vt 0.880409 0.477754
vt 0.859803 0.679606
vt 0.763583 0.811354
vt 0.859803 0.489316
vt 0.849547 0.928870
vt 0.880409 0.995546
vt 0.946408 0.804127
vt 0.776392 0.597872
vt 0.880409 0.317622
vt 0.949145 0.259034
vt 0.783687 0.349450
vt 0.949145 0.441328
vt 0.783687 0.246843
vt 0.946408 0.562579
vt 0.763583 0.901679
vt 0.776393 0.708997
vt 0.783687 0.000000
vt 0.880409 0.263392
vt 0.880409 0.396562
vt 0.859803 0.731862
vt 0.776393 0.489316
vt 0.880409 0.909576
vt 0.880409 0.000000
vt 0.746946 0.901679
vt 0.763583 0.749188
vt 0.787737 0.195177
vt 0.683812 0.219577
vt 0.880409 0.562579
vt 0.697583 0.901679
vt 0.571752 0.664507
vt 0.883320 0.635490
vt 0.594112 0.733952
vt 0.096217 0.834878
vt 0.882570 0.441328
vt 0.009635 0.749929
vt 0.780811 0.731862
vt 0.880409 0.562579
vt 0.155003 0.169045
vt 0.683812 0.708997
vt 0.691106 0.000000
vt 0.407048 0.000000
vt 0.683812 0.349450
vt 0.608573 0.918225
vt 0.941378 0.909577
vt 0.510647 0.957312
vt 0.888774 0.000000
vt 0.940780 0.804127
vt 0.407477 0.180209
vt 0.797551 0.396562
vt 0.622612 0.411684
vt 0.683812 0.708997
vt 0.800638 0.477754
vt 0.573432 0.476365
vt 0.044335 0.404001
vt 0.779796 0.679606
vt 0.365725 0.578181
vt 0.371283 0.458607
vt 0.438694 0.466681
vt 0.152373 0.432757
vt 0.686121 0.749188
vt 0.574318 0.516613
vt 0.691487 0.811354
vt 0.592316 0.576351
vt 0.786649 0.489316
vt 0.052620 0.577669
vt 0.776393 0.928870
vt 0.387969 0.846215
vt 0.373446 0.711197
vt 0.451857 0.699956
vt 0.131530 0.622732
vt 0.541846 0.099277
vt 0.783687 0.000000
vt 0.746946 0.998401
vt 0.683812 0.876685
vt 0.942947 0.995546
vt 0.883869 0.804127
vt 0.497588 0.472106
vt 0.531200 0.637068
vt 0.516672 0.549329
vt 0.582628 0.231144
vt 0.522930 0.719154
vt 0.076990 0.363057
vt 0.776392 0.731862
vt 0.692981 0.489316
vt 0.083951 0.254612
vt 0.688228 0.597872
vt 0.380952 0.374642
vt 0.389262 0.280710
vt 0.791207 0.263392
vt 0.662890 0.284601
vt 0.793690 0.317621
vt 0.645565 0.336052
vt 0.529446 0.393825
vt 0.557348 0.307944
vt 0.198005 0.278340
vt 0.472213 0.298447
vt 0.253578 0.927079
vt 0.884679 0.259035
vt 0.304750 0.008425
vt 0.686123 0.246843
vt 0.237611 0.454466
vt 0.244805 0.674865
vt 0.283483 0.264391
vt 0.331886 0.161622
vt 0.231236 0.566884
vt 0.259957 0.362479
vt 0.260886 0.806983
vt 0.247480 0.143271
vt 0.134418 0.539801
vt 0.183507 0.355457
vt 0.121142 0.721963
vt 0.478383 0.797659
vt 0.492362 0.195418
vt 0.453259 0.382966
vt 0.433060 0.568619
vt 0.711180 0.901679
vt 0.783687 0.461948
vt 0.683812 0.901679
vt 0.783687 0.489316
vt 0.783687 0.476559
vt 0.515747 0.029052
vt 0.533374 0.045549
vt 0.685062 0.461948
vt 0.542041 0.063497
vt 0.711180 0.999307
vt 0.523494 0.056117
vt 0.535944 0.042801
vt 0.685307 0.476559
vt 0.542121 0.048881
vt 0.683812 0.999694
vt 0.685672 0.489316
vt 0.783687 0.131552
vt 0.783687 0.076816
vt 0.783687 0.115774
vt 0.783687 0.092595
vt 0.169360 0.093500
vt 0.687682 0.076816
vt 0.199467 0.055427
vt 0.686397 0.131552
vt 0.175266 0.078546
vt 0.687063 0.092595
vt 0.186286 0.064611
vt 0.686593 0.115774
vt 0.849547 0.887478
vt 0.849547 0.832743
vt 0.849547 0.871651
vt 0.849547 0.848570
vt 0.002056 0.649301
vt 0.779059 0.832743
vt 0.020944 0.604356
vt 0.778583 0.860111
vt 0.777711 0.887478
vt 0.021116 0.639426
vt 0.779048 0.841158
vt 0.778704 0.848570
vt 0.778583 0.860111
vt 0.778211 0.871651
vt 0.859803 0.590851
vt 0.859803 0.545238
vt 0.859803 0.577443
vt 0.859803 0.558646
vt 0.023218 0.530031
vt 0.784198 0.545238
vt 0.017995 0.488810
vt 0.012756 0.510965
vt 0.782503 0.590851
vt 0.033423 0.515864
vt 0.016168 0.518609
vt 0.783605 0.558646
vt 0.014096 0.511283
vt 0.782985 0.577442
vt 0.880409 0.128609
vt 0.880409 0.100145
vt 0.881251 0.121001
vt 0.881209 0.110108
vt 0.624142 0.149722
vt 0.789012 0.115841
vt 0.784779 0.099874
vt 0.785374 0.127800
vt 0.644306 0.167106
vt 0.798549 0.117444
vt 0.629282 0.168517
vt 0.788363 0.115838
vt 0.785874 0.109677
vt 0.785118 0.120491
vt 0.786140 0.120457
vt 0.547568 0.691577
vt 0.554964 0.613459
vt 0.538571 0.536901
vt 0.524274 0.473605
vt 0.560924 0.399859
vt 0.592591 0.319173
vt 0.617147 0.254134
vt 0.629589 0.330962
vt 0.592094 0.405834
vt 0.545410 0.474791
vt 0.556773 0.526570
vt 0.577506 0.591064
s 0
f 79/119/1 32/50/1 33/52/1 45/74/1
f 81/121/2 40/65/2 39/64/2 58/94/2
f 77/117/3 41/66/3 37/61/3 56/89/3
f 82/122/4 47/76/4 46/75/4 38/63/4
f 129/196/5 128/195/5 52/85/5 53/86/5
f 131/198/6 130/197/6 51/84/6 62/100/6
f 27/39/7 50/81/7 55/88/7 127/194/7
f 133/200/8 132/199/8 63/101/8 54/87/8
f 75/115/9 64/102/9 57/92/9 30/45/9
f 80/120/10 65/103/10 59/95/10 34/55/10
f 34/55/10 59/95/10 70/110/10 71/111/10
f 38/63/11 46/75/11 69/109/11 72/112/11
f 58/94/10 39/64/10 68/108/10 73/113/10
f 45/74/12 33/52/12 66/104/12 74/114/12
f 71/111/13 70/110/13 64/102/13 75/115/13
f 72/112/14 69/109/14 48/77/14 76/116/14
f 73/113/10 68/108/10 41/66/10 77/117/10
f 74/114/15 66/104/15 28/40/15 78/118/15
f 69/109/16 74/114/16 78/118/16 48/77/16
f 46/75/17 45/74/17 74/114/17 69/109/17
f 128/195/18 127/194/18 55/88/18 52/85/18
f 47/76/19 79/119/19 45/74/19 46/75/19
f 78/118/20 28/40/20 29/42/20 104/155/20 106/160/20
f 31/48/21 71/111/21 75/115/21 67/106/21
f 49/78/22 80/120/22 34/55/22 89/133/22 88/131/22
f 122/183/23 124/189/23 54/87/23 80/120/23 49/78/23
f 70/110/10 73/113/10 77/117/10 64/102/10
f 59/95/10 58/94/10 73/113/10 70/110/10
f 132/199/24 131/198/24 62/100/24 63/101/24
f 64/102/25 77/117/25 56/89/25 57/92/25
f 65/103/10 81/121/10 58/94/10 59/95/10
f 63/101/26 62/100/26 81/121/26 65/103/26
f 52/85/27 55/88/27 79/119/27 47/76/27
f 54/87/28 63/101/28 65/103/28 80/120/28
f 53/86/29 52/85/29 47/76/29 82/122/29
f 62/100/30 51/84/30 40/65/30 81/121/30
f 55/88/31 50/81/31 32/50/31 79/119/31
f 51/84/32 53/86/32 82/122/32 40/65/32
f 68/108/33 72/112/33 76/116/33 41/66/33
f 39/64/34 38/63/34 72/112/34 68/108/34
f 130/197/35 129/196/35 53/86/35 51/84/35
f 76/116/36 48/77/36 44/72/36 113/169/36 115/174/36
f 40/65/37 82/122/37 38/63/37 39/64/37
f 18/25/38 11/16/38 61/98/38 60/96/38
f 3/3/39 101/152/39 104/156/39 29/43/39
f 12/17/40 14/19/40 28/41/40 66/105/40
f 22/30/41 119/180/41 122/185/41 49/79/41
f 16/21/42 2/2/42 27/38/42 26/35/42
f 9/13/43 21/29/43 32/51/43 50/82/43
f 14/19/44 3/4/44 29/44/44 28/41/44
f 92/139/45 15/20/45 67/107/45 97/146/45
f 41/66/46 76/116/46 115/174/46 114/171/46 37/61/46
f 25/34/47 60/97/47 133/200/47
f 67/106/48 75/115/48 30/45/48 96/143/48 98/147/48 99/149/48 97/145/48
f 11/16/49 19/26/49 35/56/49 61/98/49
f 83/123/50 22/31/50 49/80/50 88/132/50
f 4/5/51 12/17/51 66/105/51 33/53/51
f 87/128/52 89/133/52 34/55/52 71/111/52 31/48/52
f 2/2/53 9/14/53 50/83/53 27/38/53
f 6/9/54 20/27/54 56/90/54 37/62/54
f 21/29/55 4/6/55 33/54/55 32/51/55
f 5/7/56 23/32/56 42/67/56 36/58/56
f 15/20/57 13/18/57 31/49/57 67/107/57
f 10/15/58 17/23/58 30/46/58 57/93/58
f 19/26/59 5/8/59 36/59/59 35/56/59
f 8/11/60 110/166/60 113/170/60 44/71/60
f 7/10/61 16/22/61 26/36/61 43/69/61
f 1/1/62 18/25/62 60/96/62 25/33/62
f 48/77/63 78/118/63 106/160/63 105/157/63 44/72/63
f 20/28/64 10/15/64 57/93/64 56/91/64
f 23/32/65 7/10/65 43/69/65 42/67/65
f 87/129/66 90/134/66 89/133/66
f 90/134/67 91/136/67 89/133/67
f 91/136/68 88/131/68 89/133/68
f 83/123/69 88/132/69 91/137/69 85/125/69
f 85/126/70 91/138/70 90/135/70 86/127/70
f 86/127/71 90/135/71 87/130/71 84/124/71
f 13/18/72 84/124/72 87/130/72 31/49/72
f 92/139/73 97/146/73 99/150/73 94/141/73
f 94/141/74 99/150/74 98/148/74 95/142/74
f 95/142/75 98/148/75 96/144/75 93/140/75
f 17/24/76 93/140/76 96/144/76 30/47/76
f 104/156/77 107/162/77 106/161/77
f 107/162/78 108/163/78 106/161/78
f 108/163/79 105/158/79 106/161/79
f 104/156/80 101/152/80 103/154/80 107/162/80
f 107/162/81 103/154/81 102/153/81 108/164/81
f 108/164/82 102/153/82 100/151/82 105/159/82
f 100/151/83 8/12/83 44/73/83 105/159/83
f 113/169/84 116/175/84 115/174/84
f 116/175/85 117/177/85 115/174/85
f 117/177/86 114/172/86 115/174/86
f 109/165/87 114/173/87 117/178/87 111/167/87
f 111/167/88 117/178/88 116/176/88 112/168/88
f 112/168/89 116/176/89 113/170/89 110/166/89
f 109/165/90 6/9/90 37/62/90 114/173/90
f 122/184/91 125/190/91 124/188/91
f 125/190/92 126/192/92 124/188/92
f 126/192/93 123/186/93 124/188/93
f 122/185/94 119/180/94 121/182/94 125/191/94
f 125/191/95 121/182/95 120/181/95 126/193/95
f 126/193/96 120/181/96 118/179/96 123/186/96
f 118/179/97 1/1/97 25/33/97 123/186/97
f 60/97/98 61/99/98 134/201/98
f 134/201/24 135/202/24 131/198/24 132/199/24
f 135/202/99 136/203/99 130/197/99 131/198/99
f 136/203/100 137/204/100 129/196/100 130/197/100
f 137/204/101 138/205/101 128/195/101 129/196/101
f 26/37/102 127/194/102 128/195/102 138/205/102
f 26/37/103 27/39/103 127/194/103
f 123/187/104 25/34/104 133/200/104 54/87/104 124/189/104
f 42/68/105 43/70/105 138/205/105 137/204/105
f 36/60/106 42/68/106 137/204/106 136/203/106
f 35/57/107 36/60/107 136/203/107 135/202/107
f 61/99/108 35/57/108 135/202/108 134/201/108
f 133/200/109 60/97/109 134/201/109 132/199/109
f 43/70/110 26/37/110 138/205/110
