# Blender 3.4.1
# www.blender.org
mtllib Rock_10_low.mtl
o Rock_10
v -11.382882 0.645219 20.020584
v -11.070591 1.441256 20.005869
v -13.389755 1.441255 22.470156
v -13.259029 0.645218 22.203619
v -12.826261 1.441255 19.351713
v -12.771450 0.645219 19.604198
v -11.223264 1.441255 21.661793
v -11.535555 0.645219 21.676506
v -13.545757 1.441255 19.850981
v -13.889024 1.441255 21.750658
v -13.573457 0.645218 21.749331
v -13.230190 0.645219 19.849653
v -12.434391 0.645219 20.801886
v -11.524962 0.645219 21.561617
v -11.461625 1.174899 21.560715
v -11.517888 0.645219 21.484890
v -12.206120 0.645219 20.044312
v -12.361707 0.645219 19.727068
v -12.227651 1.376425 19.600166
v -12.153240 0.645219 19.789579
v -12.513078 0.645218 21.858959
v -12.444729 0.645218 21.954571
v -12.368246 1.441255 22.089010
v -12.509277 1.441255 21.891726
v -12.621624 1.441255 22.183550
v -12.563920 0.645218 21.991026
v -12.059218 2.041485 18.666611
v -14.152884 2.041485 19.449749
v -10.348033 2.041485 20.085352
v -15.046261 2.314686 23.345518
v -14.592323 2.977686 22.093283
v -13.136100 2.977686 24.520645
v -12.059219 2.977687 18.823219
v -14.152884 2.977687 19.713673
v -14.881769 2.970018 23.352253
v -10.445055 2.977687 20.187073
v -14.348269 1.439026 22.157227
v -14.592323 1.674983 22.093283
v -12.598714 1.439026 19.136644
v -11.703809 1.439026 19.287636
v -11.776703 1.674497 18.900843
v -13.437478 1.439026 19.450386
v -13.809483 1.674847 19.321301
v -14.014890 1.439026 20.151720
v -14.212992 1.674930 19.811342
v -10.419446 1.673874 20.445959
v -11.025391 1.439027 19.850111
v -10.630795 1.674178 19.850914
v -14.482121 1.439026 22.526472
v -14.827851 1.673813 22.743011
v -14.513549 1.673325 23.702675
v -10.569937 2.246152 24.436989
v -10.837049 2.977686 24.595579
v -10.647729 2.977686 24.383665
v -10.752975 1.439027 20.616491
v -10.699861 1.458311 20.674864
v -14.317303 1.560199 23.688206
v -14.015192 1.673244 24.036800
v -13.136100 1.916128 24.626186
v -14.301410 1.439026 23.078800
v -10.759257 2.254723 24.648903
v -10.814687 1.799983 22.441778
v -12.054498 1.793058 23.267906
v -10.706765 1.993306 23.321556
v -10.723656 2.195700 23.183868
v -10.733012 1.946289 23.107590
v -13.076571 1.924608 24.626757
v -13.010733 2.033796 24.627386
v -12.969822 1.760467 23.742126
v -12.951677 1.942400 24.627951
v -12.404883 1.674684 18.795906
v -12.405325 1.671614 18.799566
v -12.232651 1.439026 19.497015
v -12.269099 1.895350 18.745115
v -12.392307 1.439026 19.171471
v -12.172760 1.439026 19.208513
v -12.193677 1.674621 18.830427
v -12.245142 1.842980 18.736155
v -14.598043 2.186099 22.109062
v -14.592323 2.119347 22.093283
v -14.301546 1.439026 21.876154
v -14.154316 1.439026 21.840498
v -14.575726 1.674981 21.993439
v -14.511612 1.674972 21.607752
v -14.267986 1.439026 21.674267
v -14.592323 2.166438 22.093283
v -10.636904 1.673613 21.544041
v -10.676086 1.637945 21.545431
v -10.859257 1.614915 21.558809
v -10.683505 1.684274 21.779360
v -10.553207 2.377586 23.404512
v -10.133621 2.977686 23.705563
v -10.174699 2.977686 20.884008
v -10.072821 2.550263 23.792561
v -10.077677 2.550264 20.884008
v -10.814687 2.377586 22.441778
v -10.450529 2.550264 20.602919
v -10.693672 2.377586 23.428289
v -10.637268 2.976177 23.888105
v -10.547551 2.977686 20.602919
v -10.457870 2.977686 20.597385
v -10.637268 2.550263 23.888105
v -10.643686 2.377586 21.578289
v -10.556988 2.377586 21.140495
v -10.790756 2.377586 21.589916
v -10.675343 2.377586 21.738144
v -10.518256 2.391645 20.944914
v -9.776919 2.550264 22.328693
v -9.873941 2.977686 22.328693
v -10.300025 2.377586 22.306019
v -13.203321 -0.755015 23.802008
v -13.455171 2.107023 23.987251
v -12.889429 2.107024 20.650911
v -12.850618 -0.755015 20.945232
v -11.631117 2.107024 23.559322
v -11.816612 -0.755015 23.379477
v -14.245356 2.107023 22.524036
v -13.993507 -0.755015 22.338793
v -11.308666 2.107024 22.745094
v -12.075199 2.107024 20.973362
v -12.337189 -0.755015 21.149275
v -11.570656 -0.755015 22.921007
v -12.760687 -0.755015 22.569054
v -13.938684 -0.755015 22.440313
v -13.990916 1.174898 22.476151
v -13.902070 -0.755015 22.508112
v -12.531077 -0.755015 23.326221
v -12.225807 -0.755015 23.504160
v -12.267119 1.376425 23.684071
v -12.433995 -0.755015 23.567595
v -13.280739 -0.755015 21.645395
v -13.390606 -0.755015 21.603657
v -13.528753 2.107024 21.534098
v -13.302053 2.107024 21.620222
v -13.370174 2.107024 21.315029
v -13.311567 -0.755015 21.507280
v -11.443413 2.976228 23.988779
v -13.261355 2.979636 23.691719
v -11.771888 2.977478 23.173384
v -13.353309 2.980051 22.497246
v -11.318023 2.977841 21.381945
v -12.055132 2.978962 21.081163
vn -0.5174 -0.2495 -0.8185
vn -0.5174 -0.2495 -0.8186
vn -0.7814 -0.3101 0.5415
vn -0.7813 -0.3102 0.5416
vn -0.7810 -0.3105 0.5419
vn -0.9169 -0.3632 -0.1657
vn 0.6392 -0.0777 -0.7651
vn -0.5968 -0.0512 0.8008
vn 0.9267 -0.3659 0.0854
vn 0.9267 -0.3659 0.0855
vn 0.8728 -0.2343 -0.4281
vn -0.9680 -0.1506 -0.2009
vn 0.3176 -0.2060 -0.9256
vn -0.8133 -0.0200 0.5814
vn 0.9331 -0.0192 0.3592
vn 0.3211 -0.1487 0.9353
vn 0.3211 -0.1488 0.9353
vn 0.3143 -0.2285 0.9214
vn 0.3145 -0.2286 0.9213
vn 0.3144 -0.2285 0.9214
vn -0.0000 -1.0000 -0.0000
vn -0.6904 -0.4475 -0.5684
vn 0.6374 0.1036 -0.7635
vn 0.8388 -0.4554 -0.2982
vn -0.8091 -0.5246 0.2647
vn -0.6334 -0.7672 0.1014
vn -0.5706 -0.7676 0.2917
vn -0.5919 -0.7815 -0.1971
vn -0.3660 -0.8191 -0.4417
vn -0.3071 -0.7817 -0.5428
vn 0.2005 -0.8196 -0.5368
vn 0.4679 -0.7836 -0.4087
vn 0.3177 -0.7821 -0.5360
vn -0.6605 -0.7306 -0.1733
vn -0.5982 -0.7962 -0.0910
vn -0.5497 0.0739 0.8321
vn -0.5497 0.0738 0.8321
vn 0.5036 -0.8451 -0.1791
vn 0.4900 -0.8214 -0.2920
vn -0.4846 -0.8603 0.1584
vn -0.4399 -0.8121 0.3834
vn -0.3798 -0.7314 0.5664
vn 0.7240 0.1608 0.6708
vn 0.7411 0.1271 0.6593
vn 0.7410 0.1270 0.6594
vn 0.1149 -0.5522 -0.8258
vn 0.1487 -0.2943 0.9441
vn 0.8394 -0.5072 0.1954
vn -0.8334 -0.5377 0.1275
vn -0.0272 0.0877 0.9958
vn 0.7515 -0.5472 -0.3685
vn 0.7515 -0.5473 -0.3685
vn -0.9049 -0.3818 -0.1879
vn 0.1487 -0.4481 -0.8815
vn -0.3616 0.1559 -0.9192
vn 0.0895 -0.8430 -0.5304
vn -0.1243 -0.7819 -0.6109
vn -0.1935 -0.7522 -0.6299
vn 0.0894 -0.8431 -0.5302
vn 0.0893 -0.8431 -0.5303
vn -0.2397 -0.7293 -0.6408
vn -0.2304 0.2051 -0.9512
vn -0.6784 -0.5697 0.4639
vn -0.9490 0.0690 -0.3075
vn -0.9699 0.0437 -0.2394
vn -0.9490 0.0691 -0.3075
vn -0.9852 0.0182 -0.1702
vn -0.9526 0.0642 -0.2974
vn -0.9865 -0.0000 -0.1640
vn -0.9710 0.0347 -0.2366
vn -0.6753 -0.7289 -0.1123
vn -0.5039 -0.8190 -0.2744
vn -0.6608 -0.7304 -0.1731
vn 0.6028 -0.7978 -0.0128
vn 0.6698 -0.7306 0.1325
vn 0.1364 -0.9709 0.1966
vn 0.0870 -0.9883 0.1249
vn 0.9775 0.2109 -0.0057
vn 0.9557 0.2169 -0.1990
vn 0.9987 0.0099 0.0491
vn 0.9951 0.0193 -0.0971
vn 0.9951 0.0191 -0.0971
vn 0.0787 -0.0477 0.9958
vn 0.7882 -0.0458 -0.6137
vn 0.9827 0.0310 0.1828
vn 0.9827 0.0311 0.1828
vn 0.9977 0.0083 0.0674
vn 0.9809 -0.0000 0.1943
vn 0.6006 0.0682 -0.7967
vn 0.6006 0.0681 -0.7967
vn 0.1770 -0.9842 -0.0002
vn 0.2503 0.1156 0.9612
vn 0.2501 0.1158 0.9613
vn 0.2501 0.1155 0.9613
vn 0.1205 -0.9815 0.1489
vn 0.0583 -0.9369 0.3447
vn 0.0305 -0.9832 0.1801
vn 0.2715 -0.8925 -0.3602
vn 0.3019 -0.9389 -0.1654
vn 0.3007 -0.9374 -0.1757
vn 0.3073 -0.9516 0.0029
vn 0.2733 -0.9604 -0.0548
vn 0.9622 0.1968 0.1882
vn 0.9775 0.2109 -0.0054
vn 0.9107 -0.0715 0.4067
vn 0.9107 -0.0715 0.4068
vn 0.3671 -0.0904 -0.9258
vn 0.3674 -0.0903 -0.9257
vn 0.9124 -0.1078 -0.3948
vn -0.1086 -0.0214 0.9939
vn 0.0533 -0.0141 -0.9985
vn -0.8747 -0.1087 0.4723
vn -0.8747 -0.1087 0.4724
vn -0.5019 -0.0824 0.8610
vn 0.9265 -0.0522 -0.3727
vn 0.2538 -0.0577 0.9655
vn 0.3551 -0.0056 -0.9348
vn -0.9760 -0.0054 0.2178
vn -0.7936 -0.0418 -0.6070
vn -0.7914 -0.0651 -0.6078
vn -0.5496 0.0739 0.8321
vn -0.7813 -0.3101 0.5416
vn 0.5638 -0.8217 -0.0831
vn 0.7293 0.1188 0.6738
vn 0.7514 -0.5473 -0.3685
vn -0.9789 0.0300 -0.2023
vn 0.0661 -0.9933 0.0952
vn 0.1366 -0.9709 0.1966
vn 0.1370 -0.9709 0.1966
vn 0.1365 -0.9709 0.1966
vn 0.9951 0.0192 -0.0971
vn 0.9951 0.0196 -0.0971
vn 0.9951 0.0195 -0.0971
vn 0.1971 -0.9615 0.1916
vn 0.3672 -0.0903 -0.9257
vn 0.2538 -0.0578 0.9655
vn 0.0289 0.9992 -0.0264
vn -0.0006 1.0000 0.0010
vn 0.0003 1.0000 0.0005
vn 0.0189 0.9998 -0.0004
vn -0.0002 1.0000 0.0009
vn 0.0008 1.0000 0.0007
vn -0.0000 1.0000 0.0001
vn 0.0007 1.0000 0.0004
vn 0.0001 1.0000 -0.0000
vn 0.0004 1.0000 0.0002
vn -0.0024 1.0000 0.0018
vn -0.0016 1.0000 0.0013
vn -0.0004 1.0000 -0.0000
vn 0.0006 1.0000 -0.0001
vn 0.0008 1.0000 0.0003
vn -0.0033 1.0000 0.0011
vn -0.0068 1.0000 0.0041
vn -0.0005 1.0000 -0.0006
vn 0.0001 1.0000 -0.0006
vn 0.0005 1.0000 -0.0005
vt 0.213067 0.927953
vt 0.656739 0.662366
vt 0.285054 0.821041
vt 0.990627 0.219805
vt 0.275534 0.947994
vt 0.344928 0.808810
vt 0.563616 0.928360
vt 0.139393 0.940254
vt 0.201580 0.918858
vt 0.569756 0.864782
vt 0.769969 0.469367
vt 0.139197 0.700456
vt 0.275534 0.808810
vt 0.201580 0.718418
vt 0.212466 0.822656
vt 0.768603 0.674994
vt 0.990627 0.349095
vt 0.743531 0.887725
vt 0.554096 0.859093
vt 0.792279 0.959979
vt 0.743531 0.953328
vt 0.491921 0.882610
vt 0.645540 0.533562
vt 0.133482 0.758305
vt 0.133601 0.904384
vt 0.197931 0.896184
vt 0.800270 0.499769
vt 0.197811 0.750105
vt 0.800270 0.649862
vt 0.960948 0.219805
vt 0.957472 0.416247
vt 0.726306 0.588030
vt 0.924493 0.304348
vt 0.783566 0.957894
vt 0.646317 0.542498
vt 0.960948 0.324131
vt 0.957472 0.333651
vt 0.792279 0.917856
vt 0.970468 0.342769
vt 0.730793 0.913412
vt 0.340557 0.934346
vt 0.924493 0.359009
vt 0.646836 0.548467
vt 0.299269 0.934346
vt 0.211100 0.878344
vt 0.979081 0.907962
vt 0.719323 0.649150
vt 0.735594 0.671268
vt 0.212644 0.853727
vt 0.979081 0.973938
vt 0.270359 0.857348
vt 0.961831 0.917682
vt 0.212734 0.869536
vt 0.718799 0.669372
vt 0.631245 0.784330
vt 0.924664 0.644982
vt 0.717722 0.506066
vt 0.491710 0.955010
vt 0.636002 0.783977
vt 0.711179 0.499698
vt 0.636002 0.844754
vt 0.554096 0.950832
vt 0.626186 0.845483
vt 0.924664 0.706855
vt 0.900994 0.708012
vt 0.624816 0.921858
vt 0.913952 0.645505
vt 0.624816 0.859093
vt 0.719784 0.495258
vt 0.717933 0.870173
vt 0.616665 0.809067
vt 0.356162 0.872052
vt 0.260391 0.780284
vt 0.717251 0.697451
vt 0.407093 0.801095
vt 0.431787 0.791575
vt 0.283071 0.475431
vt 0.332215 0.580155
vt 0.369302 0.292746
vt 0.482190 0.649981
vt 0.221213 0.455562
vt 0.646068 0.863214
vt 0.616665 0.736477
vt 0.226126 0.004760
vt 0.370516 0.801095
vt 0.491710 0.702730
vt 0.332215 0.763432
vt 0.372142 0.104620
vt 0.332144 0.481413
vt 0.482190 0.776768
vt 0.372142 0.393147
vt 0.645540 0.699070
vt 0.480424 0.806368
vt 0.082237 0.084085
vt 0.211100 0.579906
vt 0.416614 0.270468
vt 0.231654 0.577417
vt 0.545195 0.031470
vt 0.615024 0.041015
vt 0.746266 0.841467
vt 0.609316 0.011378
vt 0.480836 0.057901
vt 0.229166 0.799290
vt 0.370516 0.898957
vt 0.514219 0.809492
vt 0.452527 0.049021
vt 0.211438 0.733226
vt 0.437693 0.113811
vt 0.422378 0.088088
vt 0.232035 0.751870
vt 0.747658 0.684514
vt 0.718370 0.128125
vt 0.380037 0.831012
vt 0.669033 0.083064
vt 0.745835 0.725802
vt 0.700541 0.082403
vt 0.211701 0.549437
vt 0.407108 0.299488
vt 0.381662 0.317400
vt 0.232620 0.523801
vt 0.228089 0.465082
vt 0.381836 0.754979
vt 0.408355 0.391203
vt 0.718370 0.439208
vt 0.874033 0.756894
vt 0.820625 0.730638
vt 0.475793 0.472659
vt 0.044795 0.426164
vt 0.817435 0.748759
vt 0.033598 0.407117
vt 0.692014 0.141951
vt 0.696349 0.146377
vt 0.423134 0.389483
vt 0.447840 0.415948
vt 0.381662 0.718795
vt 0.400215 0.654178
vt 0.518395 0.459847
vt 0.422458 0.341966
vt 0.876570 0.738642
vt 0.704213 0.456147
vt 0.419667 0.469367
vt 0.692936 0.284308
vt 0.876570 0.911344
vt 0.359700 0.696492
vt 0.995240 0.577659
vt 0.598646 0.351529
vt 0.341735 0.782512
vt 0.704138 0.352607
vt 0.875712 0.843293
vt 0.359700 0.782566
vt 0.995240 0.469367
vt 0.858129 0.850359
vt 0.976490 0.475231
vt 0.701414 0.335997
vt 0.875920 0.859843
vt 0.626186 0.772677
vt 0.400702 0.649550
vt 0.523049 0.459754
vt 0.634311 0.774457
vt 0.971200 0.647445
vt 0.408986 0.644106
vt 0.634311 0.702730
vt 0.971200 0.714318
vt 0.528607 0.390584
vt 0.964426 0.651235
vt 0.532813 0.459560
vt 0.401724 0.639838
vt 0.592939 0.831614
vt 0.380718 0.935943
vt 0.560302 0.004760
vt 0.380643 0.936229
vt 0.560265 0.005042
vt 0.397447 0.981644
vt 0.545481 0.846671
vt 0.574474 0.058578
vt 0.397447 0.927329
vt 0.603168 0.816914
vt 0.380037 0.963274
vt 0.561301 0.033672
vt 0.567717 0.849573
vt 0.578432 0.036013
vt 0.576780 0.006926
vt 0.596721 0.834108
vt 0.747658 0.870470
vt 0.734397 0.878205
vt 0.603889 0.821287
vt 0.370516 0.908478
vt 0.399889 0.268101
vt 0.271135 0.577189
vt 0.368833 0.913284
vt 0.265956 0.578351
vt 0.211148 0.601394
vt 0.363209 0.964153
vt 0.419569 0.248512
vt 0.370516 0.965346
vt 0.430912 0.245382
vt 0.356557 0.945105
vt 0.231671 0.585050
vt 0.403497 0.228411
vt 0.231735 0.614536
vt 0.211182 0.616828
vt 0.421691 0.232742
vt 0.400222 0.266841
vt 0.269591 0.578450
vt 0.704117 0.213984
vt 0.757179 0.972388
vt 0.384495 0.917809
vt 0.700946 0.214151
vt 0.759974 0.975415
vt 0.686674 0.215615
vt 0.774045 0.978427
vt 0.954906 0.647445
vt 0.701103 0.232395
vt 0.934184 0.654428
vt 0.875091 0.964536
vt 0.880420 0.506167
vt 0.645764 0.928037
vt 0.791516 0.902107
vt 0.004760 0.347569
vt 0.791516 0.685380
vt 0.688496 0.893668
vt 0.050983 0.133088
vt 0.678621 0.932226
vt 0.758129 0.908336
vt 0.846447 0.471438
vt 0.758017 0.684514
vt 0.721272 0.887725
vt 0.819315 0.695925
vt 0.832584 0.902445
vt 0.891474 0.582914
vt 0.845401 0.721118
vt 0.448685 0.840048
vt 0.721272 0.924028
vt 0.848129 0.829478
vt 0.891474 0.505652
vt 0.645540 0.887725
vt 0.809791 0.786246
vt 0.040369 0.369177
vt 0.688495 0.929971
vt 0.482190 0.839456
vt 0.083701 0.117353
vt 0.688141 0.924713
vt 0.076948 0.115562
vt 0.842225 0.792807
vt 0.678621 0.887837
vt 0.890866 0.469367
vt 0.762618 0.917856
vt 0.439263 0.917809
vt 0.870125 0.647939
vt 0.437478 0.883204
vt 0.859301 0.680908
vt 0.774045 0.918841
vt 0.954906 0.706941
vt 0.881573 0.648424
vt 0.940798 0.708012
vt 0.821653 0.957053
vt 0.874077 0.635901
vt 0.437771 0.867691
vt 0.854415 0.695614
vt 0.757179 0.792411
vt 0.809791 0.581619
vt 0.790678 0.793277
vt 0.005990 0.238634
vt 0.850512 0.588555
vt 0.914972 0.219805
vt 0.513952 0.470477
vt 0.739095 0.197767
vt 0.914972 0.443229
vt 0.491710 0.693209
vt 0.086654 0.701023
vt 0.004760 0.468351
vt 0.027257 0.690936
vt 0.070513 0.923719
vt 0.852382 0.004760
vt 0.886091 0.952452
vt 0.636019 0.693209
vt 0.899916 0.730821
vt 0.624368 0.470138
vt 0.851016 0.210285
vt 0.834588 0.447544
vt 0.109383 0.700456
vt 0.727890 0.219805
vt 0.109383 0.924297
vt 0.978424 0.005429
vt 0.749584 0.442174
vt 0.727890 0.069037
vt 0.952311 0.952452
vt 0.201580 0.467141
vt 0.070132 0.465082
vt 0.068513 0.688878
vt 0.882699 0.035119
vt 0.882699 0.185136
vt 0.937913 0.730638
vt 0.199961 0.690936
vt 0.968904 0.004760
vt 0.966969 0.635461
vt 0.808698 0.123403
vt 0.892219 0.052375
vt 0.728668 0.077969
vt 0.983969 0.004760
vt 0.968904 0.181372
vt 0.966969 0.469367
vt 0.830263 0.372887
vt 0.096174 0.774492
vt 0.983969 0.154155
vt 0.900994 0.603615
vt 0.843890 0.223620
vt 0.729187 0.083933
vt 0.569448 0.469367
vt 0.979085 0.730638
vt 0.801711 0.184500
vt 0.817990 0.206591
vt 0.591786 0.470238
vt 0.979085 0.898442
vt 0.586238 0.636379
vt 0.961831 0.733310
vt 0.575209 0.470289
vt 0.801187 0.204711
vt 0.344474 0.465082
vt 0.007227 0.923719
vt 0.800109 0.041489
vt 0.820742 0.444301
vt 0.353222 0.465082
vt 0.793563 0.035130
vt 0.359786 0.686971
vt 0.820742 0.221887
vt 0.341735 0.686971
vt 0.004760 0.702448
vt 0.024350 0.700456
vt 0.802172 0.030684
vt 0.016092 0.922818
vt 0.100290 0.389163
vt 0.243421 0.394280
vt 0.137785 0.332016
vt 0.268674 0.304621
vt 0.130542 0.188511
vt 0.191331 0.176837
s 1
usemtl Rock_010
f 5/12/1 12/28/2 9/24/2
f 11/26/3 3/8/4 10/25/5
f 9/24/6 11/26/6 10/25/6
f 14/33/7 13/30/7 15/36/7
f 15/37/8 13/31/8 16/42/8
f 15/38/9 8/20/10 14/34/10
f 17/45/11 18/49/11 19/51/11
f 20/52/12 17/46/12 19/50/12
f 5/13/13 2/5/13 19/51/13
f 22/59/14 24/63/14 21/55/14
f 26/67/15 24/64/15 25/65/15
f 8/22/16 23/62/16 22/58/17
f 4/10/18 25/66/19 3/7/20
f 17/47/21 1/2/21 16/43/21
f 28/73/22 43/103/22 45/110/22
f 41/100/23 27/70/23 33/82/23
f 29/74/24 46/111/24 48/115/24
f 30/77/25 50/120/26 51/121/27
f 44/108/28 43/106/29 42/102/30
f 41/101/31 47/114/32 40/99/33
f 38/97/34 49/117/35 50/120/26
f 35/90/36 51/122/36 58/135/37
f 55/131/38 47/114/32 48/116/39
f 50/119/26 49/118/35 60/138/40
f 51/123/27 57/133/41 58/134/42
f 54/129/43 61/139/44 52/125/45
f 65/150/46 64/147/46 63/144/46
f 66/153/47 65/151/47 63/145/47
f 68/159/48 67/156/48 69/162/48
f 68/160/49 69/163/49 70/165/49
f 68/161/50 59/136/50 67/157/50
f 74/176/51 75/178/51 72/171/52
f 74/177/53 78/186/53 77/183/53
f 27/70/54 77/184/54 78/185/54
f 74/177/55 71/168/55 43/105/55
f 75/179/56 39/98/57 72/172/58
f 41/101/31 76/181/59 77/182/60
f 42/102/30 71/170/61 39/98/57
f 80/190/62 79/187/62 82/195/62
f 82/196/63 86/203/63 84/199/63
f 30/77/64 31/78/65 79/189/66
f 45/110/67 84/200/67 34/87/67
f 80/191/68 83/198/69 38/97/70
f 44/107/28 84/200/71 45/110/72
f 37/95/73 83/198/71 81/192/71
f 73/175/21 82/196/21 44/108/21
f 56/132/74 87/205/75 88/208/75
f 63/146/76 69/164/76 60/138/77
f 109/262/78 95/226/79 93/220/79
f 96/229/80 98/234/81 65/152/82
f 87/206/83 103/247/83 105/252/83
f 90/214/84 105/253/84 106/255/84
f 46/113/85 97/232/86 107/258/85
f 62/143/87 106/256/88 96/229/80
f 97/233/89 100/239/90 101/242/89
f 106/257/21 103/249/21 110/264/91
f 102/245/92 92/217/93 99/236/94
f 91/216/95 102/246/96 98/235/97
f 97/231/98 95/228/99 107/259/100
f 108/261/101 110/264/91 104/251/102
f 92/218/103 108/260/104 109/262/78
f 108/261/101 91/216/95 110/264/91
f 115/275/105 122/293/106 119/287/105
f 121/290/107 113/271/108 120/289/107
f 119/288/109 121/290/109 120/289/109
f 124/298/110 123/295/110 125/301/110
f 125/302/111 123/296/111 126/306/111
f 112/268/112 117/280/113 125/303/112
f 127/309/114 128/313/114 129/315/114
f 130/316/115 127/310/115 129/314/115
f 115/276/116 112/269/116 129/315/116
f 132/323/117 134/327/117 131/319/117
f 136/331/118 134/328/118 135/329/118
f 118/285/119 133/326/119 132/322/119
f 114/273/120 135/329/120 113/270/120
f 116/279/21 121/291/21 122/292/21
f 32/80/121 58/135/37 59/136/36
f 53/127/50 32/80/50 68/161/50
f 118/286/21 131/321/21 124/299/21
f 127/311/21 111/267/21 126/308/21
f 123/297/21 116/279/21 128/312/21
f 114/274/21 131/321/21 136/330/21
f 123/297/21 124/299/21 131/321/21
f 127/311/21 123/297/21 128/312/21
f 17/47/21 6/16/21 18/48/21
f 11/27/21 13/32/21 21/57/21
f 2/4/9 7/17/9 15/39/9
f 5/12/1 6/14/2 12/28/2
f 11/26/3 4/9/122 3/8/4
f 9/24/6 12/28/6 11/26/6
f 15/40/9 7/18/9 8/21/10
f 18/49/13 6/15/13 19/51/13
f 6/15/13 5/13/13 19/51/13
f 2/5/13 1/1/13 19/51/13
f 1/1/13 20/53/13 19/51/13
f 22/59/14 23/61/14 24/63/14
f 26/67/15 21/56/15 24/64/15
f 8/22/16 7/19/17 23/62/16
f 4/10/18 26/68/18 25/66/19
f 17/47/21 20/54/21 1/2/21
f 33/82/23 36/92/23 48/115/23
f 36/92/23 29/74/23 48/115/23
f 48/115/23 41/100/23 33/82/23
f 44/108/28 45/109/72 43/106/29
f 41/101/31 48/116/39 47/114/32
f 38/97/34 37/95/73 49/117/35
f 35/90/36 30/76/121 51/122/36
f 48/116/39 46/112/123 55/131/38
f 46/112/123 56/132/74 55/131/38
f 60/138/40 57/133/41 51/123/27
f 51/123/27 50/119/26 60/138/40
f 54/129/43 53/126/124 61/139/44
f 68/161/50 32/80/50 59/136/50
f 72/171/52 71/169/125 74/176/51
f 74/176/51 73/173/51 75/178/51
f 77/183/53 76/180/53 74/177/53
f 76/180/53 73/174/53 74/177/53
f 27/70/54 41/100/54 77/184/54
f 43/104/55 28/72/55 34/85/55
f 34/86/55 33/83/55 43/105/55
f 33/83/55 27/71/55 74/177/55
f 43/105/55 33/83/55 74/177/55
f 27/71/55 78/186/55 74/177/55
f 41/101/31 40/99/33 76/181/59
f 43/106/29 71/170/61 42/102/30
f 71/170/61 72/172/58 39/98/57
f 81/193/62 83/197/62 82/195/62
f 83/197/62 80/190/62 82/195/62
f 84/199/63 85/202/63 82/196/63
f 82/196/63 79/188/63 86/203/63
f 79/189/66 80/191/68 50/120/66
f 80/191/68 38/97/70 50/120/66
f 50/120/66 30/77/64 79/189/66
f 30/77/64 35/89/64 31/78/65
f 31/78/65 86/204/126 79/189/66
f 86/204/126 31/78/65 84/200/67
f 31/78/65 34/87/67 84/200/67
f 34/87/67 28/73/67 45/110/67
f 44/107/28 85/201/71 84/200/71
f 37/95/73 38/97/34 83/198/71
f 73/175/21 76/181/21 40/99/21
f 40/99/21 47/114/21 73/175/21
f 47/114/21 55/131/127 73/175/21
f 55/131/127 60/138/77 82/196/21
f 60/138/77 49/118/21 37/96/21
f 37/96/21 81/194/21 82/196/21
f 60/138/77 37/96/21 82/196/21
f 39/98/21 75/179/21 73/175/21
f 44/108/21 42/102/21 73/175/21
f 42/102/21 39/98/21 73/175/21
f 82/196/21 85/202/21 44/108/21
f 73/175/21 55/131/127 82/196/21
f 56/132/74 46/112/123 87/205/75
f 89/210/76 90/213/76 62/142/76
f 62/142/76 66/154/76 63/146/76
f 63/146/76 64/148/128 61/140/129
f 64/148/128 52/124/130 61/140/129
f 61/140/129 70/166/76 63/146/76
f 69/164/76 67/158/76 59/137/76
f 70/166/76 69/164/76 63/146/76
f 89/210/76 62/142/76 63/146/76
f 69/164/76 59/137/76 58/134/76
f 58/134/76 57/133/76 69/164/76
f 57/133/76 60/138/77 69/164/76
f 60/138/77 55/131/127 89/210/76
f 55/131/127 56/132/76 89/210/76
f 56/132/76 88/208/76 89/210/76
f 89/210/76 63/146/76 60/138/77
f 109/262/78 108/260/104 95/226/79
f 99/237/81 54/129/131 102/244/81
f 54/129/131 52/125/132 102/244/81
f 52/125/132 64/149/81 102/244/81
f 64/149/81 65/152/82 98/234/81
f 102/244/81 64/149/81 98/234/81
f 65/152/82 66/155/133 96/229/80
f 66/155/133 62/143/87 96/229/80
f 105/252/83 89/211/83 87/206/83
f 89/211/83 88/209/83 87/206/83
f 90/214/84 89/212/84 105/253/84
f 103/248/85 87/207/85 104/250/85
f 87/207/85 46/113/85 107/258/85
f 104/250/85 87/207/85 107/258/85
f 46/113/85 29/75/85 97/232/86
f 29/75/85 36/93/85 97/232/86
f 36/93/85 100/240/85 97/232/86
f 62/143/87 90/215/88 106/256/88
f 101/242/89 93/221/89 97/233/89
f 93/221/89 95/227/89 97/233/89
f 106/257/21 105/254/21 103/249/21
f 103/249/21 104/251/102 110/264/91
f 110/264/91 91/216/95 96/230/21
f 91/216/95 98/235/97 96/230/21
f 96/230/21 106/257/21 110/264/91
f 102/245/92 94/223/92 92/217/93
f 91/216/95 94/225/134 102/246/96
f 104/251/102 107/259/100 95/228/99
f 95/228/99 108/261/101 104/251/102
f 92/218/103 94/224/103 108/260/104
f 108/261/101 94/225/134 91/216/95
f 115/275/105 116/277/106 122/293/106
f 121/290/107 114/272/135 113/271/108
f 119/288/109 122/294/109 121/290/109
f 126/307/113 111/265/113 125/303/112
f 111/265/113 112/268/112 125/303/112
f 117/281/113 118/283/113 125/304/112
f 118/284/113 124/300/113 125/305/112
f 128/313/116 116/278/136 129/315/116
f 116/278/136 115/276/116 129/315/116
f 112/269/116 111/266/136 129/315/116
f 111/266/136 130/317/116 129/315/116
f 132/323/117 133/325/117 134/327/117
f 136/331/118 131/320/118 134/328/118
f 118/285/119 117/282/119 133/326/119
f 114/273/120 136/331/120 135/329/120
f 116/279/21 114/274/21 121/291/21
f 32/80/121 35/90/36 58/135/37
f 68/161/50 70/167/50 53/127/50
f 70/167/50 61/141/50 53/127/50
f 118/286/21 132/324/21 131/321/21
f 127/311/21 130/318/21 111/267/21
f 123/297/21 114/274/21 116/279/21
f 114/274/21 123/297/21 131/321/21
f 127/311/21 126/308/21 123/297/21
f 17/47/21 12/29/21 6/16/21
f 11/27/21 12/29/21 13/32/21
f 12/29/21 17/47/21 13/32/21
f 17/47/21 16/43/21 13/32/21
f 13/32/21 14/35/21 21/57/21
f 14/35/21 8/23/21 21/57/21
f 8/23/21 22/60/21 21/57/21
f 21/57/21 26/69/21 4/11/21
f 4/11/21 11/27/21 21/57/21
f 16/44/9 1/3/9 15/41/9
f 1/3/9 2/6/9 15/41/9
f 54/130/137 99/238/138 137/332/139 53/128/140
f 99/238/138 92/219/141 139/334/142 137/332/139
f 92/219/141 109/263/143 141/336/144 139/334/142
f 109/263/143 93/222/145 101/243/146 141/336/144
f 53/128/140 137/332/139 138/333/147 32/81/148
f 137/332/139 139/334/142 140/335/149 138/333/147
f 139/334/142 141/336/144 142/337/150 140/335/149
f 141/336/144 101/243/146 100/241/151 142/337/150
f 32/81/148 138/333/147 31/79/152 35/91/153
f 138/333/147 140/335/149 34/88/154 31/79/152
f 140/335/149 142/337/150 33/84/155 34/88/154
f 142/337/150 100/241/151 36/94/156 33/84/155
